<?xml version="1.0" encoding="utf-8"?>
<!-- Uploaded to: SVG Repo, www.svgrepo.com, Generator: SVG Repo Mixer Tools -->
<svg width="800px" height="800px" viewBox="0 -12.02 94.572 94.572" xmlns="http://www.w3.org/2000/svg">
  <g id="angry" transform="translate(-348.019 -184.357)">
    <path id="Path_38" data-name="Path 38" d="M349.442,219.128c.283-26.649,16.426-33.362,45.857-33.353,29.458.009,45.585,6.732,45.869,33.353.293,27.433-16.714,34.458-46.565,34.333C365.116,253.335,349.158,245.892,349.442,219.128Z" fill="#ef7a87" fill-rule="evenodd"/>
    <path id="Path_39" data-name="Path 39" d="M349.442,219.127c.015-1.427.078-2.794.184-4.109,1.853,22.4,17.57,28.84,44.977,28.957,27.8.116,44.46-5.971,46.38-28.97.106,1.319.17,2.69.186,4.122.292,27.434-16.715,34.458-46.566,34.334C365.116,253.335,349.158,245.893,349.442,219.127Z" fill="#1a1818" fill-rule="evenodd" opacity="0.15"/>
    <path id="Path_40" data-name="Path 40" d="M348.023,219.117c.147-13.863,4.477-22.577,12.649-27.858,8.008-5.175,19.647-6.907,34.627-6.9s26.629,1.745,34.642,6.925c8.172,5.282,12.5,13.991,12.646,27.835.152,14.26-4.252,23.255-12.624,28.7-8.211,5.341-20.175,7.124-35.366,7.06-15.02-.064-26.638-2.021-34.54-7.421-8.051-5.5-12.181-14.432-12.034-28.341Zm14.185-25.466c-7.328,4.735-11.212,12.7-11.348,25.488-.136,12.855,3.571,21.031,10.8,25.971,7.377,5.043,18.483,6.871,32.949,6.932,14.66.062,26.125-1.605,33.808-6.6,7.521-4.892,11.474-13.127,11.334-26.3-.136-12.776-4.017-20.741-11.344-25.477-7.485-4.838-18.638-6.465-33.107-6.468C380.849,187.189,369.7,188.81,362.208,193.651Z" fill="#1a1818" fill-rule="evenodd"/>
    <path id="Path_41" data-name="Path 41" d="M383.237,223.551a1.42,1.42,0,0,1-2.147-1.858,18.055,18.055,0,0,1,1.869-1.872,19.148,19.148,0,0,1,24.681,0l0,0a18.077,18.077,0,0,1,1.876,1.878,1.419,1.419,0,0,1-2.146,1.858,15.162,15.162,0,0,0-1.587-1.578v-.006a16.309,16.309,0,0,0-20.97,0A15.238,15.238,0,0,0,383.237,223.551Z" fill="#1a1818" fill-rule="evenodd"/>
    <g id="Group_10" data-name="Group 10">
      <path id="Path_42" data-name="Path 42" d="M371.558,213.838a6.226,6.226,0,1,0-6.226-6.226A6.238,6.238,0,0,0,371.558,213.838Z" fill="#1a1818" fill-rule="evenodd"/>
      <path id="Path_43" data-name="Path 43" d="M370.963,207.222a2,2,0,1,0-2-2A2,2,0,0,0,370.963,207.222Z" fill="#ffffff" fill-rule="evenodd"/>
      <path id="Path_44" data-name="Path 44" d="M368.865,210.541a1.241,1.241,0,1,0-1.24-1.24A1.242,1.242,0,0,0,368.865,210.541Z" fill="#ffffff" fill-rule="evenodd"/>
    </g>
    <g id="Group_11" data-name="Group 11">
      <path id="Path_45" data-name="Path 45" d="M419.049,213.838a6.226,6.226,0,1,0-6.226-6.226A6.238,6.238,0,0,0,419.049,213.838Z" fill="#1a1818" fill-rule="evenodd"/>
      <path id="Path_46" data-name="Path 46" d="M418.455,207.222a2,2,0,1,0-2-2A2,2,0,0,0,418.455,207.222Z" fill="#ffffff" fill-rule="evenodd"/>
      <path id="Path_47" data-name="Path 47" d="M416.356,210.541a1.241,1.241,0,1,0-1.24-1.24A1.243,1.243,0,0,0,416.356,210.541Z" fill="#ffffff" fill-rule="evenodd"/>
    </g>
    <path id="Path_48" data-name="Path 48" d="M374.588,220.233l-6.057,0a1.68,1.68,0,0,1-1.171-2.884,5.753,5.753,0,0,1,7.927-.459,5.439,5.439,0,0,1,.568.568,1.678,1.678,0,0,1-1.267,2.773Z" fill="#eb505e" fill-rule="evenodd"/>
    <path id="Path_49" data-name="Path 49" d="M422.078,220.234H416.02a1.68,1.68,0,0,1-1.163-2.893,5.581,5.581,0,0,1,.462-.449,5.77,5.77,0,0,1,7.458,0,5.474,5.474,0,0,1,.567.56,1.678,1.678,0,0,1-1.266,2.781Z" fill="#eb505e" fill-rule="evenodd"/>
    <path id="Path_50" data-name="Path 50" d="M365.607,200.614a1.421,1.421,0,0,1,1.28-2.537l13.965,7.075a1.421,1.421,0,0,1-1.279,2.537Z" fill="#1a1818" fill-rule="evenodd"/>
    <path id="Path_51" data-name="Path 51" d="M423.724,198.077A1.421,1.421,0,0,1,425,200.614l-13.965,7.075a1.421,1.421,0,0,1-1.279-2.537Z" fill="#1a1818" fill-rule="evenodd"/>
  </g>
</svg>