<!DOCTYPE svg PUBLIC "-//W3C//DTD SVG 1.1//EN" "http://www.w3.org/Graphics/SVG/1.1/DTD/svg11.dtd">
<!-- Uploaded to: SVG Repo, www.svgrepo.com, Transformed by: SVG Repo Mixer Tools -->
<svg width="800px" height="800px" viewBox="0 -12.02 94.559 94.559" xmlns="http://www.w3.org/2000/svg" fill="#000000">
<g id="SVGRepo_bgCarrier" stroke-width="0"/>
<g id="SVGRepo_tracerCarrier" stroke-linecap="round" stroke-linejoin="round"/>
<g id="SVGRepo_iconCarrier"> <g id="neutral" transform="translate(-490.635 -315.87)"> <path id="Path_191" data-name="Path 191" d="M492.057,350.637c.282-26.645,16.424-33.358,45.851-33.349,29.454.009,45.579,6.732,45.864,33.349.292,27.43-16.713,34.454-46.56,34.329C507.729,384.84,491.772,377.4,492.057,350.637Z" fill="#d4ff00" fill-rule="evenodd"/> <path id="Path_192" data-name="Path 192" d="M492.057,350.637c.015-1.428.078-2.794.184-4.109,1.853,22.395,17.567,28.836,44.971,28.953,27.8.115,44.454-5.97,46.374-28.966.107,1.319.17,2.689.186,4.122.292,27.43-16.713,34.453-46.56,34.329C507.729,384.84,491.773,377.4,492.057,350.637Z" fill="#1a1818" fill-rule="evenodd" opacity="0.15"/> <path id="Path_193" data-name="Path 193" d="M490.639,350.626c.147-13.861,4.476-22.575,12.647-27.855,8.006-5.174,19.644-6.9,34.622-6.9s26.626,1.745,34.638,6.924c8.171,5.282,12.5,13.989,12.644,27.832.152,14.259-4.252,23.253-12.623,28.7-8.209,5.34-20.172,7.122-35.361,7.059-15.018-.064-26.634-2.021-34.535-7.421-8.05-5.5-12.18-14.429-12.032-28.337Zm14.182-25.463c-7.327,4.735-11.211,12.7-11.346,25.485-.136,12.853,3.57,21.028,10.8,25.968,7.377,5.042,18.481,6.87,32.945,6.932,14.658.061,26.122-1.606,33.8-6.6,7.52-4.892,11.473-13.125,11.333-26.3-.137-12.774-4.017-20.738-11.343-25.473-7.484-4.838-18.636-6.464-33.1-6.469C523.46,318.7,512.312,320.322,504.821,325.163Z" fill="#1a1818" fill-rule="evenodd"/> <path id="Path_194" data-name="Path 194" d="M517.2,351.745l-6.056,0a1.68,1.68,0,0,1-1.172-2.884,5.515,5.515,0,0,1,.472-.459,5.764,5.764,0,0,1,7.454,0,5.43,5.43,0,0,1,.569.567,1.678,1.678,0,0,1-1.267,2.773Z" fill="#eb505e" fill-rule="evenodd"/> <path id="Path_195" data-name="Path 195" d="M564.683,351.747h-6.057a1.68,1.68,0,0,1-1.162-2.893,5.586,5.586,0,0,1,.461-.45,5.773,5.773,0,0,1,7.458,0,5.579,5.579,0,0,1,.567.561,1.68,1.68,0,0,1-1.267,2.781Z" fill="#eb505e" fill-rule="evenodd"/> <g id="Group_50" data-name="Group 50"> <path id="Path_196" data-name="Path 196" d="M514.173,345.178a6.226,6.226,0,1,0-6.226-6.225A6.238,6.238,0,0,0,514.173,345.178Z" fill="#1a1818" fill-rule="evenodd"/> <path id="Path_197" data-name="Path 197" d="M513.578,338.562a2,2,0,1,0-1.995-2A2,2,0,0,0,513.578,338.562Z" fill="#ffffff" fill-rule="evenodd"/> <path id="Path_198" data-name="Path 198" d="M511.48,341.881a1.24,1.24,0,1,0-1.24-1.24A1.242,1.242,0,0,0,511.48,341.881Z" fill="#ffffff" fill-rule="evenodd"/> </g> <g id="Group_51" data-name="Group 51"> <path id="Path_199" data-name="Path 199" d="M561.655,345.178a6.226,6.226,0,1,0-6.225-6.225A6.237,6.237,0,0,0,561.655,345.178Z" fill="#1a1818" fill-rule="evenodd"/> <path id="Path_200" data-name="Path 200" d="M561.061,338.562a2,2,0,1,0-2-2A2,2,0,0,0,561.061,338.562Z" fill="#ffffff" fill-rule="evenodd"/> <path id="Path_201" data-name="Path 201" d="M558.963,341.881a1.24,1.24,0,1,0-1.241-1.24A1.242,1.242,0,0,0,558.963,341.881Z" fill="#ffffff" fill-rule="evenodd"/> </g> <path id="Path_202" data-name="Path 202" d="M524.775,356.035a1.424,1.424,0,0,1,0-2.847h26.279a1.424,1.424,0,1,1,0,2.847Z" fill="#1a1818" fill-rule="evenodd"/> </g> </g>
</svg>