<!DOCTYPE svg PUBLIC "-//W3C//DTD SVG 1.1//EN" "http://www.w3.org/Graphics/SVG/1.1/DTD/svg11.dtd">
<!-- Uploaded to: SVG Repo, www.svgrepo.com, Transformed by: SVG Repo Mixer Tools -->
<svg width="800px" height="800px" viewBox="0 -12.02 94.572 94.572" xmlns="http://www.w3.org/2000/svg" fill="#000000">
<g id="SVGRepo_bgCarrier" stroke-width="0"/>
<g id="SVGRepo_tracerCarrier" stroke-linecap="round" stroke-linejoin="round"/>
<g id="SVGRepo_iconCarrier"> <g id="happy" transform="translate(-62.8 -53.014)"> <path id="Path_1" data-name="Path 1" d="M64.223,87.785c.283-26.649,16.426-33.362,45.857-33.353,29.458.009,45.585,6.732,45.869,33.353.293,27.433-16.715,34.458-46.566,34.333C79.9,121.992,63.938,114.549,64.223,87.785Z" fill="#9effba" fill-rule="evenodd"/> <path id="Path_2" data-name="Path 2" d="M64.223,87.785c.015-1.428.078-2.8.184-4.11,1.853,22.4,17.569,28.84,44.977,28.957,27.8.116,44.46-5.971,46.379-28.97.107,1.319.171,2.69.186,4.123.292,27.433-16.714,34.458-46.565,34.333C79.9,121.992,63.939,114.55,64.223,87.785Z" fill="#1a1818" fill-rule="evenodd" opacity="0.15"/> <path id="Path_3" data-name="Path 3" d="M62.8,87.774c.147-13.863,4.477-22.577,12.649-27.858,8.008-5.175,19.647-6.907,34.627-6.9s26.629,1.745,34.642,6.925c8.172,5.282,12.5,13.991,12.646,27.835.152,14.26-4.252,23.255-12.625,28.7-8.21,5.341-20.175,7.124-35.365,7.06-15.021-.064-26.638-2.02-34.54-7.422-8.051-5.5-12.182-14.431-12.034-28.34ZM76.988,62.308C69.661,67.043,65.776,75.01,65.641,87.8c-.137,12.855,3.57,21.031,10.8,25.971,7.377,5.043,18.483,6.871,32.949,6.932,14.66.062,26.125-1.606,33.808-6.6,7.52-4.893,11.474-13.128,11.334-26.3-.137-12.776-4.017-20.74-11.344-25.477-7.485-4.838-18.638-6.464-33.107-6.469C95.63,55.846,84.48,57.467,76.988,62.308Z" fill="#1a1818" fill-rule="evenodd"/> <path id="Path_4" data-name="Path 4" d="M95.871,86.318a1.419,1.419,0,1,1,2.146-1.857,15.345,15.345,0,0,0,1.58,1.584,16.308,16.308,0,0,0,20.969,0,15.318,15.318,0,0,0,1.588-1.584,1.419,1.419,0,1,1,2.146,1.857,17.937,17.937,0,0,1-1.877,1.873,19.151,19.151,0,0,1-24.683,0A17.964,17.964,0,0,1,95.871,86.318Z" fill="#1a1818" fill-rule="evenodd"/> <path id="Path_5" data-name="Path 5" d="M89.369,88.893l-6.057,0a1.68,1.68,0,0,1-1.172-2.884,5.753,5.753,0,0,1,7.928-.46,5.537,5.537,0,0,1,.568.568,1.678,1.678,0,0,1-1.267,2.773Z" fill="#eb505e" fill-rule="evenodd"/> <path id="Path_6" data-name="Path 6" d="M136.858,88.895H130.8A1.68,1.68,0,0,1,129.638,86a5.438,5.438,0,0,1,.462-.45,5.77,5.77,0,0,1,7.458,0,5.575,5.575,0,0,1,.567.56,1.68,1.68,0,0,1-1.267,2.782Z" fill="#eb505e" fill-rule="evenodd"/> <g id="Group_1" data-name="Group 1"> <path id="Path_7" data-name="Path 7" d="M86.342,82.325A6.226,6.226,0,1,0,80.116,76.1,6.237,6.237,0,0,0,86.342,82.325Z" fill="#1a1818" fill-rule="evenodd"/> <path id="Path_8" data-name="Path 8" d="M85.747,75.709a2,2,0,1,0-2-2A2,2,0,0,0,85.747,75.709Z" fill="#ffffff" fill-rule="evenodd"/> <path id="Path_9" data-name="Path 9" d="M83.649,79.028a1.241,1.241,0,1,0-1.241-1.24A1.242,1.242,0,0,0,83.649,79.028Z" fill="#ffffff" fill-rule="evenodd"/> </g> <g id="Group_2" data-name="Group 2"> <path id="Path_10" data-name="Path 10" d="M133.83,82.325A6.226,6.226,0,1,0,127.6,76.1,6.238,6.238,0,0,0,133.83,82.325Z" fill="#1a1818" fill-rule="evenodd"/> <path id="Path_11" data-name="Path 11" d="M133.236,75.709a2,2,0,1,0-2-2A2,2,0,0,0,133.236,75.709Z" fill="#ffffff" fill-rule="evenodd"/> <path id="Path_12" data-name="Path 12" d="M131.137,79.028a1.241,1.241,0,1,0-1.241-1.24A1.243,1.243,0,0,0,131.137,79.028Z" fill="#ffffff" fill-rule="evenodd"/> </g> </g> </g>
</svg>